<svg clip-rule="evenodd" fill-rule="evenodd" height="224.478562" stroke-linejoin="round" stroke-miterlimit="2" viewBox="0 0 308 155" width="445.476837" xmlns="http://www.w3.org/2000/svg"><g fill="#054a93"><path d="m103.5 102.4h5.1v39.5h-5.1z"/><g fill-rule="nonzero"><path d="m120.6 177.2c-5.65 0-10.3-4.65-10.3-10.3s4.65-10.3 10.3-10.3 10.3 4.65 10.3 10.3c-.096 5.614-4.686 10.204-10.3 10.3m15.3 1.5v-11.9c0-.003 0-.006 0-.008 0-8.399-6.911-15.31-15.31-15.31s-15.31 6.911-15.31 15.31c0 8.398 6.911 15.31 15.31 15.31 3.766 0 7.403-1.39 10.21-3.902v1.4c-.022 5.587-4.613 10.178-10.2 10.2-3.268-.05-6.35-1.554-8.4-4.1l-3.5 3.6c2.941 3.533 7.303 5.585 11.9 5.6 7.7.1 15.3-5.6 15.3-16.2" transform="translate(-36.9 -40.1)"/><path d="m205.8 156.6c2.727.027 5.342 1.102 7.3 3l.5.5 3.5-3.6-.5-.5c-2.868-2.867-6.762-4.48-10.817-4.48-8.394 0-15.3 6.907-15.3 15.3s6.906 15.3 15.3 15.3c4.055 0 7.949-1.613 10.817-4.48l.5-.5-3.5-3.5-.5.5c-1.936 1.931-4.565 3.011-7.3 3-2.727-.027-5.342-1.102-7.3-3-1.931-1.936-3.011-4.565-3-7.3.027-2.727 1.102-5.342 3-7.3 1.993-1.832 4.593-2.865 7.3-2.9" transform="translate(-36.9 -40.1)"/><path d="m237.6 151.5c-3.827.014-7.51 1.48-10.3 4.1v-4h-5v30.4h5v-15.2c.027-5.64 4.66-10.273 10.3-10.3h2.5v-5z" transform="translate(-36.9 -40.1)"/><path d="m285 126.6 13.5-13.5h-7.1l-12.7 12.7v-23.6h-5v39.7h5v-9l2.8-2.7 11.7 11.7h7.1z"/><path d="m86.5 177.1c-5.596 0-10.2-4.604-10.2-10.2s4.604-10.2 10.2-10.2 10.2 4.604 10.2 10.2-4.604 10.2-10.2 10.2m0-25.6c-.001 0-.003 0-.004 0-8.394 0-15.3 6.907-15.3 15.3s6.906 15.3 15.3 15.3c3.764 0 7.399-1.389 10.204-3.9v3.7h5.1v-15.1c0-.02 0-.04 0-.06 0-8.338-6.842-15.207-15.18-15.24z" transform="translate(-36.9 -40.1)"/><path d="m59.5 159.6c1.294 1.305 2.224 2.925 2.7 4.7h-19.8c.441-1.789 1.377-3.418 2.7-4.7 3.982-3.878 10.418-3.878 14.4 0m4.8 17.6-3.6-3.6c-4.3 5.2-12.1 4.3-15.6.6-1.269-1.324-2.195-2.937-2.7-4.7h25c.149-.862.224-1.735.224-2.609 0-8.415-6.925-15.34-15.34-15.34-8.416 0-15.34 6.925-15.34 15.34 0 4.005 1.568 7.854 4.366 10.719l.09.09c2.979 2.949 7.008 4.604 11.2 4.6 4.456.095 8.736-1.771 11.7-5.1" transform="translate(-36.9 -40.1)"/><path d="m172.4 159.6c1.294 1.305 2.224 2.925 2.7 4.7h-19.8c.441-1.789 1.377-3.418 2.7-4.7 3.982-3.878 10.418-3.878 14.4 0m4.8 17.6-3.6-3.6c-4.3 5.2-12.1 4.3-15.6.6-1.269-1.324-2.195-2.937-2.7-4.7h25c.149-.862.224-1.735.224-2.609 0-8.415-6.925-15.34-15.34-15.34-8.416 0-15.34 6.925-15.34 15.34 0 4.005 1.568 7.854 4.366 10.719l.09.09c2.979 2.949 7.008 4.604 11.2 4.6 4.456.095 8.736-1.771 11.7-5.1" transform="translate(-36.9 -40.1)"/><path d="m263.9 159.6c1.294 1.305 2.224 2.925 2.7 4.7h-19.8c.441-1.789 1.377-3.418 2.7-4.7 3.982-3.878 10.418-3.878 14.4 0m4.8 17.6-3.6-3.6c-4.3 5.2-12.1 4.3-15.7.6-1.269-1.324-2.195-2.937-2.7-4.7h25c.149-.862.224-1.735.224-2.609 0-8.415-6.925-15.34-15.34-15.34-8.416 0-15.34 6.925-15.34 15.34 0 4.005 1.568 7.854 4.366 10.719l.09.09c2.979 2.949 7.008 4.604 11.2 4.6 4.489.115 8.808-1.752 11.8-5.1" transform="translate(-36.9 -40.1)"/><path d="m298.1 159.6c1.294 1.305 2.224 2.925 2.7 4.7h-19.8c.441-1.789 1.377-3.418 2.7-4.7 3.982-3.878 10.418-3.878 14.4 0m4.9 17.6-3.6-3.6c-4.3 5.2-12.1 4.3-15.7.6-1.269-1.324-2.195-2.937-2.7-4.7h25c.149-.862.224-1.735.224-2.609 0-8.415-6.925-15.34-15.34-15.34-8.416 0-15.34 6.925-15.34 15.34 0 4.005 1.568 7.854 4.366 10.719l.09.09c2.979 2.949 7.008 4.604 11.2 4.6 4.481.075 8.784-1.785 11.8-5.1" transform="translate(-36.9 -40.1)"/><path d="m197.5 76.7c8.4-.5 20.6 2.8 35.6 9.6-1.4-2-2.9-4-4.4-6-14.1-4.9-24.6-6.3-32.6-5.9-14.5.8-31.7 10.9-52.4 35.5 3.2 3.9 6.7 7.8 10.5 11.6 13-27.4 28.4-43.8 43.3-44.8" transform="translate(-36.9 -40.1)"/><path d="m200.6 83.3c-9.6.8-6.7 22.7 2.7 49.2 3.6-3.1 7.3-6.4 10.8-9.9 5.841-5.802 11.255-12.018 16.2-18.6-10.6-11.9-21.8-21.3-29.7-20.7" transform="translate(-36.9 -40.1)"/><path d="m131.6 93.1c1.9 3 3.9 6.1 6.1 9.1 21.4-18.8 41.2-29.1 57.2-30 7.7-.4 18.4 1.1 31 4.6l-3.3-3.9c-11-2.4-19.9-3.5-28.8-3-18.4 1.2-35.7 8.1-62.2 23.2z" transform="translate(-36.9 -40.1)"/><path d="m199.7 81.2c6.8-.6 19.3 4.6 34.9 16.4 1-1.5 2-3 2.9-4.4-17.4-10.6-29.9-14.8-38.9-14.3-15.5 1-23.4 15.1-30.9 55.1 5.342 4.425 10.989 8.469 16.9 12.1 1.4-.9 2.9-1.8 4.3-2.8-4-33.9-1.7-61 10.8-62.1" transform="translate(-36.9 -40.1)"/><path d="m192.8 67.8c7.8-.5 17 .3 27.2 2-1.9-2.1-3.9-4.2-5.9-6.2-8.887-8.952-18.788-16.839-29.5-23.5-10.694 6.687-20.592 14.571-29.5 23.5-6.328 6.331-12.146 13.152-17.4 20.4 20.1-8.9 39.2-15.2 55.1-16.2" transform="translate(-36.9 -40.1)"/><path d="m344.9 157.4h-.7v-3.5l-1.4 3.5h-.4l-1.4-3.5v3.5h-.7v-4.2h1.1l1.2 3.2 1.2-3.2h1.1zm-5.4-3.6h-1.3v3.6h-.7v-3.6h-1.3v-.6h3.3z" transform="translate(-36.9 -40.1)"/></g></g></svg>